<svg viewBox="0 0 330 200" xmlns="http://www.w3.org/2000/svg"><g><g><g><g><g><line x1="37" y1="176" x2="32" y2="176" style="visibility: inherit;" fill="rgb(0, 0, 0)" stroke="rgb(204, 204, 204)" stroke-width="1px"></line><line x1="37" y1="154" x2="32" y2="154" style="visibility: inherit;" fill="rgb(0, 0, 0)" stroke="rgb(204, 204, 204)" stroke-width="1px"></line><line x1="37" y1="132" x2="32" y2="132" style="visibility: inherit;" fill="rgb(0, 0, 0)" stroke="rgb(204, 204, 204)" stroke-width="1px"></line><line x1="37" y1="110" x2="32" y2="110" style="visibility: inherit;" fill="rgb(0, 0, 0)" stroke="rgb(204, 204, 204)" stroke-width="1px"></line><line x1="37" y1="88" x2="32" y2="88" style="visibility: inherit;" fill="rgb(0, 0, 0)" stroke="rgb(204, 204, 204)" stroke-width="1px"></line><line x1="37" y1="66" x2="32" y2="66" style="visibility: inherit;" fill="rgb(0, 0, 0)" stroke="rgb(204, 204, 204)" stroke-width="1px"></line><line x1="37" y1="44.00000000000002" x2="32" y2="44.00000000000002" style="visibility: inherit;" fill="rgb(0, 0, 0)" stroke="rgb(204, 204, 204)" stroke-width="1px"></line><line x1="37" y1="22.00000000000002" x2="32" y2="22.00000000000002" style="visibility: inherit;" fill="rgb(0, 0, 0)" stroke="rgb(204, 204, 204)" stroke-width="1px"></line><line x1="37" y1="0" x2="32" y2="0" style="visibility: inherit;" fill="rgb(0, 0, 0)" stroke="rgb(204, 204, 204)" stroke-width="1px"></line></g><g transform="translate(27, 0)"><text x="0" y="176" dx="0em" dy="0.3em" style="text-anchor: end; visibility: hidden; font-family: Roboto, sans-serif; font-size: 12px; font-weight: 200;" fill="rgb(33, 33, 33)" stroke="none" stroke-width="1px">0</text><text x="0" y="154" dx="0em" dy="0.3em" style="text-anchor: end; visibility: inherit; font-family: Roboto, sans-serif; font-size: 12px; font-weight: 200;" fill="rgb(33, 33, 33)" stroke="none" stroke-width="1px">0.2</text><text x="0" y="132" dx="0em" dy="0.3em" style="text-anchor: end; visibility: hidden; font-family: Roboto, sans-serif; font-size: 12px; font-weight: 200;" fill="rgb(33, 33, 33)" stroke="none" stroke-width="1px">0.4</text><text x="0" y="110" dx="0em" dy="0.3em" style="text-anchor: end; visibility: inherit; font-family: Roboto, sans-serif; font-size: 12px; font-weight: 200;" fill="rgb(33, 33, 33)" stroke="none" stroke-width="1px">0.6</text><text x="0" y="88" dx="0em" dy="0.3em" style="text-anchor: end; visibility: hidden; font-family: Roboto, sans-serif; font-size: 12px; font-weight: 200;" fill="rgb(33, 33, 33)" stroke="none" stroke-width="1px">0.8</text><text x="0" y="66" dx="0em" dy="0.3em" style="text-anchor: end; visibility: inherit; font-family: Roboto, sans-serif; font-size: 12px; font-weight: 200;" fill="rgb(33, 33, 33)" stroke="none" stroke-width="1px">1</text><text x="0" y="44.00000000000002" dx="0em" dy="0.3em" style="text-anchor: end; visibility: hidden; font-family: Roboto, sans-serif; font-size: 12px; font-weight: 200;" fill="rgb(33, 33, 33)" stroke="none" stroke-width="1px">1.2</text><text x="0" y="22.00000000000002" dx="0em" dy="0.3em" style="text-anchor: end; visibility: inherit; font-family: Roboto, sans-serif; font-size: 12px; font-weight: 200;" fill="rgb(33, 33, 33)" stroke="none" stroke-width="1px">1.4</text><text x="0" y="0" dx="0em" dy="0.3em" style="text-anchor: end; visibility: hidden; font-family: Roboto, sans-serif; font-size: 12px; font-weight: 200;" fill="rgb(33, 33, 33)" stroke="none" stroke-width="1px">1.6</text></g><line x1="37" y1="0" x2="37" y2="176" fill="rgb(0, 0, 0)" stroke="rgb(204, 204, 204)" stroke-width="1px"></line></g></g><g transform="translate(37, 0)" clip-path="url(#clip_0)"><clipPath id="clip_0"><rect width="293" height="176"></rect></clipPath><g><g><g><line x1="0" y1="0" x2="0" y2="176" fill="rgb(0, 0, 0)" stroke="rgb(66, 66, 66)" stroke-width="1px" opacity="0.25"></line><line x1="24.416666666666664" y1="0" x2="24.416666666666664" y2="176" fill="rgb(0, 0, 0)" stroke="rgb(66, 66, 66)" stroke-width="1px" opacity="0.25"></line><line x1="48.83333333333333" y1="0" x2="48.83333333333333" y2="176" fill="rgb(0, 0, 0)" stroke="rgb(66, 66, 66)" stroke-width="1px" opacity="0.25"></line><line x1="73.25" y1="0" x2="73.25" y2="176" fill="rgb(0, 0, 0)" stroke="rgb(66, 66, 66)" stroke-width="1px" opacity="0.25"></line><line x1="97.66666666666666" y1="0" x2="97.66666666666666" y2="176" fill="rgb(0, 0, 0)" stroke="rgb(66, 66, 66)" stroke-width="1px" opacity="0.25"></line><line x1="122.08333333333334" y1="0" x2="122.08333333333334" y2="176" fill="rgb(0, 0, 0)" stroke="rgb(66, 66, 66)" stroke-width="1px" opacity="0.25"></line><line x1="146.5" y1="0" x2="146.5" y2="176" fill="rgb(0, 0, 0)" stroke="rgb(66, 66, 66)" stroke-width="1px" opacity="0.25"></line><line x1="170.91666666666669" y1="0" x2="170.91666666666669" y2="176" fill="rgb(0, 0, 0)" stroke="rgb(66, 66, 66)" stroke-width="1px" opacity="0.25"></line><line x1="195.33333333333331" y1="0" x2="195.33333333333331" y2="176" fill="rgb(0, 0, 0)" stroke="rgb(66, 66, 66)" stroke-width="1px" opacity="0.25"></line><line x1="219.75" y1="0" x2="219.75" y2="176" fill="rgb(0, 0, 0)" stroke="rgb(66, 66, 66)" stroke-width="1px" opacity="0.25"></line><line x1="244.16666666666669" y1="0" x2="244.16666666666669" y2="176" fill="rgb(0, 0, 0)" stroke="rgb(66, 66, 66)" stroke-width="1px" opacity="0.25"></line><line x1="268.5833333333333" y1="0" x2="268.5833333333333" y2="176" fill="rgb(0, 0, 0)" stroke="rgb(66, 66, 66)" stroke-width="1px" opacity="0.25"></line><line x1="293" y1="0" x2="293" y2="176" fill="rgb(0, 0, 0)" stroke="rgb(66, 66, 66)" stroke-width="1px" opacity="0.25"></line></g><g><line x1="0" y1="176" x2="293" y2="176" fill="rgb(0, 0, 0)" stroke="rgb(66, 66, 66)" stroke-width="1px" opacity="0.25"></line><line x1="0" y1="154" x2="293" y2="154" fill="rgb(0, 0, 0)" stroke="rgb(66, 66, 66)" stroke-width="1px" opacity="0.25"></line><line x1="0" y1="132" x2="293" y2="132" fill="rgb(0, 0, 0)" stroke="rgb(66, 66, 66)" stroke-width="1px" opacity="0.25"></line><line x1="0" y1="110" x2="293" y2="110" fill="rgb(0, 0, 0)" stroke="rgb(66, 66, 66)" stroke-width="1px" opacity="0.25"></line><line x1="0" y1="88" x2="293" y2="88" fill="rgb(0, 0, 0)" stroke="rgb(66, 66, 66)" stroke-width="1px" opacity="0.25"></line><line x1="0" y1="66" x2="293" y2="66" fill="rgb(0, 0, 0)" stroke="rgb(66, 66, 66)" stroke-width="1px" opacity="0.25"></line><line x1="0" y1="44.00000000000002" x2="293" y2="44.00000000000002" fill="rgb(0, 0, 0)" stroke="rgb(66, 66, 66)" stroke-width="1px" opacity="0.25"></line><line x1="0" y1="22.00000000000002" x2="293" y2="22.00000000000002" fill="rgb(0, 0, 0)" stroke="rgb(66, 66, 66)" stroke-width="1px" opacity="0.25"></line><line x1="0" y1="0" x2="293" y2="0" fill="rgb(0, 0, 0)" stroke="rgb(66, 66, 66)" stroke-width="1px" opacity="0.25"></line></g></g></g><g><g><line x1="0" y1="176" x2="293" y2="176" fill="rgb(0, 0, 0)" stroke="rgb(153, 153, 153)" stroke-width="1.5px"></line></g></g><g><g><line x1="24.416666666666664" y1="0" x2="24.416666666666664" y2="176" fill="rgb(0, 0, 0)" stroke="rgb(153, 153, 153)" stroke-width="1.5px"></line></g></g><g><g><g><g><g><path stroke="rgb(204, 51, 17)" stroke-width="2px" d="M39.06666666666666,-47.90290720226331L43.949999999999996,11.236493510364582L48.83333333333333,49.752654695740034L53.71666666666666,76.48503151585824L58.6,95.25368631792378L63.483333333333334,108.79192459056571L68.36666666666667,119.00039394386022L73.25,126.6074820178859L78.13333333333333,132.1166056502349L83.01666666666667,136.74285790113578L87.89999999999999,140.013043049062L92.78333333333333,142.18994364898157L97.66666666666666,145.01236301851256L102.55,147.12610428288312L107.43333333333332,148.4204370140239L112.31666666666668,149.72748923434818L117.2,151.00061606946954L122.08333333333334,151.84205636338766L126.96666666666667,153.02087100553922L131.85,153.2486853651194L136.73333333333335,153.9560480446001L141.61666666666667,153.99516892069332L146.5,154.38638295335576L151.38333333333335,154.95474243043924L156.26666666666665,155.89205785914695L161.15,156.52670954267745L166.03333333333333,156.9938140705988L170.91666666666669,157.50437115796507L175.79999999999998,157.65263021217137L180.68333333333334,157.72706008880604L185.56666666666666,158.1686760552772L190.45000000000002,158.7363336120398L195.33333333333331,158.87579619270895L200.21666666666667,159.2277565496136L205.1,159.44045339454635L209.98333333333335,159.8202610487851L214.86666666666665,160.02096355676076L219.75,160.20210266386698L224.63333333333335,160.4596767935713L229.51666666666665,160.8949191684286L234.4,160.7649738775173L239.28333333333333,160.37792353613548L244.16666666666669,160.55352782474418L249.04999999999998,160.73992783184963L253.93333333333334,160.7929334099688L258.81666666666666,161.13735513513274L263.7,161.48772351567914" style="fill: none;" fill="none"></path></g><g><path stroke="rgb(255, 112, 67)" stroke-width="2px" d="M29.3,-59.57345831204974L34.18333333333334,18.523253434484204L39.06666666666666,57.38859299899165L43.949999999999996,80.65307580564514L48.83333333333333,96.30407152405172L53.71666666666666,106.0698743567479L58.6,113.06099249598354L63.483333333333334,118.45414426894594L68.36666666666667,122.1907358529888L73.25,125.59233374881715L78.13333333333333,126.41439861124334L83.01666666666667,128.34571986486944L87.89999999999999,129.3693569185579L92.78333333333333,130.3613589865224L97.66666666666666,131.93129028297008L102.55,132.81571129651684L107.43333333333332,134.00919463497905L112.31666666666668,134.6453800157013L117.2,134.62808675040193L122.08333333333334,134.60038779162798L126.96666666666667,135.10889900319265L131.85,135.4783766636573L136.73333333333335,136.3039532364302L141.61666666666667,137.24304499744397L146.5,138.0902926682051L151.38333333333335,138.78908930011755L156.26666666666665,138.78535205743822L161.15,139.17487934487852L166.03333333333333,139.8845279828772L170.91666666666669,140.39318263626635L175.79999999999998,140.65975118958875L180.68333333333334,140.74062140216552L185.56666666666666,140.7745860255936L190.45000000000002,140.98139155685635L195.33333333333331,141.52480374680673L200.21666666666667,141.9927496434023L205.1,142.19138805698296L209.98333333333335,142.44173144673897L214.86666666666665,142.58756170983224L219.75,142.7482442886902L224.63333333333335,143.1379630025049L229.51666666666665,142.84422030724528L234.4,142.6366843742146L239.28333333333333,142.58173389895578L244.16666666666669,142.99451598753853L249.04999999999998,143.02657028515176L253.93333333333334,143.34932428057775L258.81666666666666,143.82183504044158L263.7,144.0814551243383" style="fill: none;" fill="none"></path></g><g><path stroke="rgb(51, 187, 238)" stroke-width="2px" d="M29.3,-14.995961370922267L34.18333333333334,46.94534722637587L39.06666666666666,78.2883431304619L43.949999999999996,96.90754422532902L48.83333333333333,110.09865808476958L53.71666666666666,119.56609588100773L58.6,126.79537644347539L63.483333333333334,131.97027983838123L68.36666666666667,135.82785469133412L73.25,138.88279214374376L78.13333333333333,141.91614660745915L83.01666666666667,144.35215890655937L87.89999999999999,146.7411300733521L92.78333333333333,148.86479325321753L97.66666666666666,150.33078167253066L102.55,151.3865924365657L107.43333333333332,152.7312016425421L112.31666666666668,153.5939025870244L117.2,153.8704937445589L122.08333333333334,154.47934909842948L126.96666666666667,155.60353250719822L131.85,156.04499652891258L136.73333333333335,156.2401323377356L141.61666666666667,157.06857152848576L146.5,157.16876402666261L151.38333333333335,157.89603452650374L156.26666666666665,158.44571577709456L161.15,158.54493887247776L166.03333333333333,158.2082907217171L170.91666666666669,158.77086629868717L175.79999999999998,159.15265538769899L180.68333333333334,159.36264021605905L185.56666666666666,158.50867452170309L190.45000000000002,158.30191737835898L195.33333333333331,159.0826354785021L200.21666666666667,160.23301644361047L205.1,161.0030915747034L209.98333333333335,159.89839068098755L214.86666666666665,160.15717161347288L219.75,160.78945348323145L224.63333333333335,161.45289596104578L229.51666666666665,161.67250539182027L234.4,162.35548908974027L239.28333333333333,162.8637736290755L244.16666666666669,163.25332058250635L249.04999999999998,163.21322590556974L253.93333333333334,163.47518350324233L258.81666666666666,163.8238406069763L263.7,163.420542382727" style="fill: none;" fill="none"></path></g><g><path stroke="rgb(0, 119, 187)" stroke-width="2px" d="M24.416666666666664,-128.2410683631897L29.3,7.681513607907471L34.18333333333334,56.29127163704909L39.06666666666666,81.21752522110324L43.949999999999996,95.57490786028326L48.83333333333333,106.01311601833407L53.71666666666666,113.53950840100882L58.6,119.30954941250496L63.483333333333334,123.49152194345122L68.36666666666667,126.15021917375667L73.25,129.18205495934302L78.13333333333333,130.89585793042903L83.01666666666667,132.23521312644073L87.89999999999999,133.16687541974588L92.78333333333333,134.55033290847385L97.66666666666666,135.5189615651328L102.55,135.6760759794839L107.43333333333332,136.12825656384848L112.31666666666668,137.49138333108817L117.2,138.1586559108007L122.08333333333334,138.26815550003417L126.96666666666667,138.91871223089214L131.85,139.50594784901887L136.73333333333335,140.50389459870175L141.61666666666667,140.35297297782878L146.5,140.69131725382888L151.38333333333335,141.2755888980054L156.26666666666665,141.90434951948703L161.15,142.16333066047287L166.03333333333333,142.16525882279572L170.91666666666669,142.33816006637193L175.79999999999998,142.50277120371177L180.68333333333334,142.54050469388457L185.56666666666666,143.35152744126853L190.45000000000002,144.13292957847034L195.33333333333331,144.07572288817104L200.21666666666667,144.43062577328564L205.1,144.667717319394L209.98333333333335,144.81952344424454L214.86666666666665,145.30638431129745L219.75,145.70145236000693L224.63333333333335,145.92902565279357L229.51666666666665,145.921399349278L234.4,146.1719475059193L239.28333333333333,146.25070490180073L244.16666666666669,146.05280021231127L249.04999999999998,145.89999755531576L253.93333333333334,146.7346089651646L258.81666666666666,147.56239526948673L263.7,147.76725922664278" style="fill: none;" fill="none"></path></g></g></g></g><g opacity="0.2"><g><g><g><path stroke="rgb(204, 51, 17)" stroke-width="2px" d="M24.416666666666664,-956.198657989502L29.3,107.31254255771637L34.18333333333334,123.79153287410736L39.06666666666666,135.37271118164062L43.949999999999996,137.46012723445892L48.83333333333333,141.9848541021347L53.71666666666666,145.81550872325897L58.6,146.7818204164505L63.483333333333334,147.53176724910736L68.36666666666667,149.1173774600029L73.25,149.56529042124748L78.13333333333333,149.02803680300713L83.01666666666667,151.1270841062069L87.89999999999999,150.2797091603279L92.78333333333333,149.07452082633972L97.66666666666666,153.98820778727531L102.55,153.87669464945793L107.43333333333332,152.5674315392971L112.31666666666668,153.9255160689354L117.2,155.0973301231861L122.08333333333334,154.55353638529778L126.96666666666667,156.82364961504936L131.85,153.98420995473862L136.73333333333335,156.24129703640938L141.61666666666667,154.1216163933277L146.5,155.65134218335152L151.38333333333335,156.79300612211227L156.26666666666665,158.9243016242981L161.15,158.58016511797905L166.03333333333333,158.50535041093826L170.91666666666669,159.15667748451233L175.79999999999998,158.1324734389782L180.68333333333334,157.96796730160713L185.56666666666666,159.59811589121819L190.45000000000002,160.5738099515438L195.33333333333331,159.32724019885063L200.21666666666667,160.36708316206932L205.1,160.12898182868958L209.98333333333335,161.04976347088814L214.86666666666665,160.67067748308182L219.75,160.78848978877068L224.63333333333335,161.29350504279137L229.51666666666665,162.3039068132639L234.4,160.34430748224258L239.28333333333333,159.12493905425072L244.16666666666669,161.12200638651848L249.04999999999998,161.3433558344841L253.93333333333334,160.9645271897316L258.81666666666666,162.25234477221966L263.7,162.6219647973776" style="fill: none;" fill="none"></path></g><g><path stroke="rgb(255, 112, 67)" stroke-width="2px" d="M24.416666666666664,-287.0238437652588L29.3,114.19863617420197L34.18333333333334,123.77387946844101L39.06666666666666,127.09901070594788L43.949999999999996,130.30740982294083L48.83333333333333,133.78251469135284L53.71666666666666,131.39750516414642L58.6,132.25465750694275L63.483333333333334,133.88671731948853L68.36666666666667,133.21441268920898L73.25,135.85818475484848L78.13333333333333,128.93790221214294L83.01666666666667,134.35070192813873L87.89999999999999,132.58304035663605L92.78333333333333,133.49862432479858L97.66666666666666,136.92397838830948L102.55,135.6402594447136L107.43333333333332,137.83307141065598L112.31666666666668,136.68869799375534L117.2,134.57243984937668L122.08333333333334,134.51112991571426L126.96666666666667,136.74932277202606L131.85,136.67127734422684L136.73333333333335,138.97111123800278L141.61666666666667,140.2784008383751L146.5,140.82980012893677L151.38333333333335,141.049230158329L156.26666666666665,138.77326196432114L161.15,140.43521946668625L166.03333333333333,142.18092983961105L170.91666666666669,142.03933215141296L175.79999999999998,141.52250534296036L180.68333333333334,141.0023740530014L185.56666666666666,140.88452404737473L190.45000000000002,141.65080970525742L195.33333333333331,143.2838431596756L200.21666666666667,143.50753164291382L205.1,142.83440744876862L209.98333333333335,143.25213587284088L214.86666666666665,143.0596432685852L219.75,143.26840913295746L224.63333333333335,144.3995744585991L229.51666666666665,141.89330226182938L234.4,141.96483707427979L239.28333333333333,142.4038446545601L244.16666666666669,144.3308032155037L249.04999999999998,143.13033884763718L253.93333333333334,144.3941686153412L258.81666666666666,145.3514847755432L263.7,144.92191857099533" style="fill: none;" fill="none"></path></g><g><path stroke="rgb(51, 187, 238)" stroke-width="2px" d="M24.416666666666664,-191.0250105857849L29.3,119.49023222923279L34.18333333333334,130.42340105772018L39.06666666666666,134.50638628005981L43.949999999999996,136.64726412296295L48.83333333333333,141.68657875061035L53.71666666666666,144.1199163198471L58.6,146.6429010629654L63.483333333333334,146.77833235263824L68.36666666666667,147.20845586061478L73.25,148.10243940353394L78.13333333333333,151.22767573595047L83.01666666666667,151.92635720968246L87.89999999999999,154.2412464916706L92.78333333333333,155.58100393414497L97.66666666666666,154.9929111301899L102.55,154.75850275158882L107.43333333333332,157.0392801463604L112.31666666666668,156.36474958062172L117.2,154.76051887869835L122.08333333333334,156.44134110212326L126.96666666666667,159.23007434606552L131.85,157.4703133702278L136.73333333333335,156.8705499768257L141.61666666666667,159.74627336859703L146.5,157.49272844195366L151.38333333333335,160.24826934933662L156.26666666666665,160.2239512503147L161.15,158.86598145961761L166.03333333333333,157.11890733242035L170.91666666666669,160.59151908755302L175.79999999999998,160.3883229792118L180.68333333333334,160.04229819774628L185.56666666666666,155.7445249557495L190.45000000000002,157.63265585899353L195.33333333333331,161.60984030365944L200.21666666666667,163.95690074563026L205.1,163.49592885375023L209.98333333333335,156.32228469848633L214.86666666666665,160.99489694833755L219.75,162.83628894388676L224.63333333333335,163.60061584413052L229.51666666666665,162.38343565165997L234.4,164.56648333370686L239.28333333333333,164.50922532379627L244.16666666666669,164.5143893957138L249.04999999999998,163.08342842757702L253.93333333333334,164.32321301102638L258.81666666666666,164.95254135131836L263.7,162.11495226621628" style="fill: none;" fill="none"></path></g><g><path stroke="rgb(0, 119, 187)" stroke-width="2px" d="M24.416666666666664,-128.2410683631897L29.3,111.52636623382568L34.18333333333334,121.80244809389114L39.06666666666666,125.92624431848526L43.949999999999996,126.21845489740372L48.83333333333333,131.00882863998413L53.71666666666666,133.05922335386276L58.6,135.15082573890686L63.483333333333334,135.458290040493L68.36666666666667,133.9938966035843L73.25,138.33198255300522L78.13333333333333,136.15674203634262L83.01666666666667,136.3996181488037L87.89999999999999,136.09180635213852L92.78333333333333,138.92559921741486L97.66666666666666,138.5993898510933L102.55,136.17784744501114L107.43333333333332,137.57702654600143L112.31666666666668,141.86951196193695L117.2,140.30583000183105L122.08333333333334,138.62100994586945L126.96666666666667,141.0173655152321L131.85,141.40190488100052L136.73333333333335,143.72792220115662L141.61666666666667,139.8651603460312L146.5,141.7853263616562L151.38333333333335,143.16531783342361L156.26666666666665,143.93840914964676L161.15,143.0012804865837L166.03333333333333,142.17149829864502L170.91666666666669,142.89771711826324L175.79999999999998,143.03553825616837L180.68333333333334,142.66263669729233L185.56666666666666,145.97667759656906L190.45000000000002,146.66228538751602L195.33333333333331,143.89054334163666L200.21666666666667,145.5794776082039L205.1,145.43521469831467L209.98333333333335,145.31094586849213L214.86666666666665,146.8824497461319L219.75,146.9803745150566L224.63333333333335,146.66573411226273L229.51666666666665,145.89671111106873L234.4,146.98303645849228L239.28333333333333,146.50566345453262L244.16666666666669,145.4121292233467L249.04999999999998,145.40533339977264L253.93333333333334,149.4364779293537L258.81666666666666,150.24217149615288L263.7,148.43046164512634" style="fill: none;" fill="none"></path></g></g></g></g></g></g><g transform="translate(37, 176)" clip-path="url(#clip_1)"><clipPath id="clip_1"><rect width="293" height="24"></rect></clipPath><g><g><line x1="0" y1="0" x2="0" y2="5" style="visibility: inherit;" fill="rgb(0, 0, 0)" stroke="rgb(204, 204, 204)" stroke-width="1px"></line><line x1="24.416666666666664" y1="0" x2="24.416666666666664" y2="5" style="visibility: inherit;" fill="rgb(0, 0, 0)" stroke="rgb(204, 204, 204)" stroke-width="1px"></line><line x1="48.83333333333333" y1="0" x2="48.83333333333333" y2="5" style="visibility: inherit;" fill="rgb(0, 0, 0)" stroke="rgb(204, 204, 204)" stroke-width="1px"></line><line x1="73.25" y1="0" x2="73.25" y2="5" style="visibility: inherit;" fill="rgb(0, 0, 0)" stroke="rgb(204, 204, 204)" stroke-width="1px"></line><line x1="97.66666666666666" y1="0" x2="97.66666666666666" y2="5" style="visibility: inherit;" fill="rgb(0, 0, 0)" stroke="rgb(204, 204, 204)" stroke-width="1px"></line><line x1="122.08333333333334" y1="0" x2="122.08333333333334" y2="5" style="visibility: inherit;" fill="rgb(0, 0, 0)" stroke="rgb(204, 204, 204)" stroke-width="1px"></line><line x1="146.5" y1="0" x2="146.5" y2="5" style="visibility: inherit;" fill="rgb(0, 0, 0)" stroke="rgb(204, 204, 204)" stroke-width="1px"></line><line x1="170.91666666666669" y1="0" x2="170.91666666666669" y2="5" style="visibility: inherit;" fill="rgb(0, 0, 0)" stroke="rgb(204, 204, 204)" stroke-width="1px"></line><line x1="195.33333333333331" y1="0" x2="195.33333333333331" y2="5" style="visibility: inherit;" fill="rgb(0, 0, 0)" stroke="rgb(204, 204, 204)" stroke-width="1px"></line><line x1="219.75" y1="0" x2="219.75" y2="5" style="visibility: inherit;" fill="rgb(0, 0, 0)" stroke="rgb(204, 204, 204)" stroke-width="1px"></line><line x1="244.16666666666669" y1="0" x2="244.16666666666669" y2="5" style="visibility: inherit;" fill="rgb(0, 0, 0)" stroke="rgb(204, 204, 204)" stroke-width="1px"></line><line x1="268.5833333333333" y1="0" x2="268.5833333333333" y2="5" style="visibility: inherit;" fill="rgb(0, 0, 0)" stroke="rgb(204, 204, 204)" stroke-width="1px"></line><line x1="293" y1="0" x2="293" y2="5" style="visibility: inherit;" fill="rgb(0, 0, 0)" stroke="rgb(204, 204, 204)" stroke-width="1px"></line></g><g transform="translate(0, 8)"><text x="0" y="0" dx="0em" dy="0.95em" style="text-anchor: middle; visibility: hidden; font-family: Roboto, sans-serif; font-size: 12px; font-weight: 200;" fill="rgb(33, 33, 33)" stroke="none" stroke-width="1px">-5</text><text x="24.416666666666664" y="0" dx="0em" dy="0.95em" style="text-anchor: middle; visibility: inherit; font-family: Roboto, sans-serif; font-size: 12px; font-weight: 200;" fill="rgb(33, 33, 33)" stroke="none" stroke-width="1px">0</text><text x="48.83333333333333" y="0" dx="0em" dy="0.95em" style="text-anchor: middle; visibility: inherit; font-family: Roboto, sans-serif; font-size: 12px; font-weight: 200;" fill="rgb(33, 33, 33)" stroke="none" stroke-width="1px">5</text><text x="73.25" y="0" dx="0em" dy="0.95em" style="text-anchor: middle; visibility: inherit; font-family: Roboto, sans-serif; font-size: 12px; font-weight: 200;" fill="rgb(33, 33, 33)" stroke="none" stroke-width="1px">10</text><text x="97.66666666666666" y="0" dx="0em" dy="0.95em" style="text-anchor: middle; visibility: inherit; font-family: Roboto, sans-serif; font-size: 12px; font-weight: 200;" fill="rgb(33, 33, 33)" stroke="none" stroke-width="1px">15</text><text x="122.08333333333334" y="0" dx="0em" dy="0.95em" style="text-anchor: middle; visibility: inherit; font-family: Roboto, sans-serif; font-size: 12px; font-weight: 200;" fill="rgb(33, 33, 33)" stroke="none" stroke-width="1px">20</text><text x="146.5" y="0" dx="0em" dy="0.95em" style="text-anchor: middle; visibility: inherit; font-family: Roboto, sans-serif; font-size: 12px; font-weight: 200;" fill="rgb(33, 33, 33)" stroke="none" stroke-width="1px">25</text><text x="170.91666666666669" y="0" dx="0em" dy="0.95em" style="text-anchor: middle; visibility: inherit; font-family: Roboto, sans-serif; font-size: 12px; font-weight: 200;" fill="rgb(33, 33, 33)" stroke="none" stroke-width="1px">30</text><text x="195.33333333333331" y="0" dx="0em" dy="0.95em" style="text-anchor: middle; visibility: inherit; font-family: Roboto, sans-serif; font-size: 12px; font-weight: 200;" fill="rgb(33, 33, 33)" stroke="none" stroke-width="1px">35</text><text x="219.75" y="0" dx="0em" dy="0.95em" style="text-anchor: middle; visibility: inherit; font-family: Roboto, sans-serif; font-size: 12px; font-weight: 200;" fill="rgb(33, 33, 33)" stroke="none" stroke-width="1px">40</text><text x="244.16666666666669" y="0" dx="0em" dy="0.95em" style="text-anchor: middle; visibility: inherit; font-family: Roboto, sans-serif; font-size: 12px; font-weight: 200;" fill="rgb(33, 33, 33)" stroke="none" stroke-width="1px">45</text><text x="268.5833333333333" y="0" dx="0em" dy="0.95em" style="text-anchor: middle; visibility: inherit; font-family: Roboto, sans-serif; font-size: 12px; font-weight: 200;" fill="rgb(33, 33, 33)" stroke="none" stroke-width="1px">50</text><text x="293" y="0" dx="0em" dy="0.95em" style="text-anchor: middle; visibility: hidden; font-family: Roboto, sans-serif; font-size: 12px; font-weight: 200;" fill="rgb(33, 33, 33)" stroke="none" stroke-width="1px">55</text></g><line x1="0" y1="0" x2="293" y2="0" fill="rgb(0, 0, 0)" stroke="rgb(204, 204, 204)" stroke-width="1px"></line></g></g></g></g></svg>