<svg viewBox="0 0 330 200" xmlns="http://www.w3.org/2000/svg"><g><g><g><g><g><line x1="46" y1="176" x2="41" y2="176" style="visibility: inherit;" fill="rgb(0, 0, 0)" stroke="rgb(204, 204, 204)" stroke-width="1px"></line><line x1="46" y1="150.8571428571429" x2="41" y2="150.8571428571429" style="visibility: inherit;" fill="rgb(0, 0, 0)" stroke="rgb(204, 204, 204)" stroke-width="1px"></line><line x1="46" y1="125.71428571428574" x2="41" y2="125.71428571428574" style="visibility: inherit;" fill="rgb(0, 0, 0)" stroke="rgb(204, 204, 204)" stroke-width="1px"></line><line x1="46" y1="100.57142857142857" x2="41" y2="100.57142857142857" style="visibility: inherit;" fill="rgb(0, 0, 0)" stroke="rgb(204, 204, 204)" stroke-width="1px"></line><line x1="46" y1="75.42857142857146" x2="41" y2="75.42857142857146" style="visibility: inherit;" fill="rgb(0, 0, 0)" stroke="rgb(204, 204, 204)" stroke-width="1px"></line><line x1="46" y1="50.285714285714285" x2="41" y2="50.285714285714285" style="visibility: inherit;" fill="rgb(0, 0, 0)" stroke="rgb(204, 204, 204)" stroke-width="1px"></line><line x1="46" y1="25.14285714285717" x2="41" y2="25.14285714285717" style="visibility: inherit;" fill="rgb(0, 0, 0)" stroke="rgb(204, 204, 204)" stroke-width="1px"></line><line x1="46" y1="0" x2="41" y2="0" style="visibility: inherit;" fill="rgb(0, 0, 0)" stroke="rgb(204, 204, 204)" stroke-width="1px"></line></g><g transform="translate(36, 0)"><text x="0" y="176" dx="0em" dy="0.3em" style="text-anchor: end; visibility: hidden; font-family: Roboto, sans-serif; font-size: 12px; font-weight: 200;" fill="rgb(33, 33, 33)" stroke="none" stroke-width="1px">0.65</text><text x="0" y="150.8571428571429" dx="0em" dy="0.3em" style="text-anchor: end; visibility: inherit; font-family: Roboto, sans-serif; font-size: 12px; font-weight: 200;" fill="rgb(33, 33, 33)" stroke="none" stroke-width="1px">0.7</text><text x="0" y="125.71428571428574" dx="0em" dy="0.3em" style="text-anchor: end; visibility: inherit; font-family: Roboto, sans-serif; font-size: 12px; font-weight: 200;" fill="rgb(33, 33, 33)" stroke="none" stroke-width="1px">0.75</text><text x="0" y="100.57142857142857" dx="0em" dy="0.3em" style="text-anchor: end; visibility: inherit; font-family: Roboto, sans-serif; font-size: 12px; font-weight: 200;" fill="rgb(33, 33, 33)" stroke="none" stroke-width="1px">0.8</text><text x="0" y="75.42857142857146" dx="0em" dy="0.3em" style="text-anchor: end; visibility: inherit; font-family: Roboto, sans-serif; font-size: 12px; font-weight: 200;" fill="rgb(33, 33, 33)" stroke="none" stroke-width="1px">0.85</text><text x="0" y="50.285714285714285" dx="0em" dy="0.3em" style="text-anchor: end; visibility: inherit; font-family: Roboto, sans-serif; font-size: 12px; font-weight: 200;" fill="rgb(33, 33, 33)" stroke="none" stroke-width="1px">0.9</text><text x="0" y="25.14285714285717" dx="0em" dy="0.3em" style="text-anchor: end; visibility: inherit; font-family: Roboto, sans-serif; font-size: 12px; font-weight: 200;" fill="rgb(33, 33, 33)" stroke="none" stroke-width="1px">0.95</text><text x="0" y="0" dx="0em" dy="0.3em" style="text-anchor: end; visibility: hidden; font-family: Roboto, sans-serif; font-size: 12px; font-weight: 200;" fill="rgb(33, 33, 33)" stroke="none" stroke-width="1px">1</text></g><line x1="46" y1="0" x2="46" y2="176" fill="rgb(0, 0, 0)" stroke="rgb(204, 204, 204)" stroke-width="1px"></line></g></g><g transform="translate(46, 0)" clip-path="url(#clip_0)"><clipPath id="clip_0"><rect width="284" height="176"></rect></clipPath><g><g><g><line x1="0" y1="0" x2="0" y2="176" fill="rgb(0, 0, 0)" stroke="rgb(66, 66, 66)" stroke-width="1px" opacity="0.25"></line><line x1="23.666666666666664" y1="0" x2="23.666666666666664" y2="176" fill="rgb(0, 0, 0)" stroke="rgb(66, 66, 66)" stroke-width="1px" opacity="0.25"></line><line x1="47.33333333333333" y1="0" x2="47.33333333333333" y2="176" fill="rgb(0, 0, 0)" stroke="rgb(66, 66, 66)" stroke-width="1px" opacity="0.25"></line><line x1="71" y1="0" x2="71" y2="176" fill="rgb(0, 0, 0)" stroke="rgb(66, 66, 66)" stroke-width="1px" opacity="0.25"></line><line x1="94.66666666666666" y1="0" x2="94.66666666666666" y2="176" fill="rgb(0, 0, 0)" stroke="rgb(66, 66, 66)" stroke-width="1px" opacity="0.25"></line><line x1="118.33333333333334" y1="0" x2="118.33333333333334" y2="176" fill="rgb(0, 0, 0)" stroke="rgb(66, 66, 66)" stroke-width="1px" opacity="0.25"></line><line x1="142" y1="0" x2="142" y2="176" fill="rgb(0, 0, 0)" stroke="rgb(66, 66, 66)" stroke-width="1px" opacity="0.25"></line><line x1="165.66666666666669" y1="0" x2="165.66666666666669" y2="176" fill="rgb(0, 0, 0)" stroke="rgb(66, 66, 66)" stroke-width="1px" opacity="0.25"></line><line x1="189.33333333333331" y1="0" x2="189.33333333333331" y2="176" fill="rgb(0, 0, 0)" stroke="rgb(66, 66, 66)" stroke-width="1px" opacity="0.25"></line><line x1="213" y1="0" x2="213" y2="176" fill="rgb(0, 0, 0)" stroke="rgb(66, 66, 66)" stroke-width="1px" opacity="0.25"></line><line x1="236.66666666666669" y1="0" x2="236.66666666666669" y2="176" fill="rgb(0, 0, 0)" stroke="rgb(66, 66, 66)" stroke-width="1px" opacity="0.25"></line><line x1="260.3333333333333" y1="0" x2="260.3333333333333" y2="176" fill="rgb(0, 0, 0)" stroke="rgb(66, 66, 66)" stroke-width="1px" opacity="0.25"></line><line x1="284" y1="0" x2="284" y2="176" fill="rgb(0, 0, 0)" stroke="rgb(66, 66, 66)" stroke-width="1px" opacity="0.25"></line></g><g><line x1="0" y1="176" x2="284" y2="176" fill="rgb(0, 0, 0)" stroke="rgb(66, 66, 66)" stroke-width="1px" opacity="0.25"></line><line x1="0" y1="150.8571428571429" x2="284" y2="150.8571428571429" fill="rgb(0, 0, 0)" stroke="rgb(66, 66, 66)" stroke-width="1px" opacity="0.25"></line><line x1="0" y1="125.71428571428574" x2="284" y2="125.71428571428574" fill="rgb(0, 0, 0)" stroke="rgb(66, 66, 66)" stroke-width="1px" opacity="0.25"></line><line x1="0" y1="100.57142857142857" x2="284" y2="100.57142857142857" fill="rgb(0, 0, 0)" stroke="rgb(66, 66, 66)" stroke-width="1px" opacity="0.25"></line><line x1="0" y1="75.42857142857146" x2="284" y2="75.42857142857146" fill="rgb(0, 0, 0)" stroke="rgb(66, 66, 66)" stroke-width="1px" opacity="0.25"></line><line x1="0" y1="50.285714285714285" x2="284" y2="50.285714285714285" fill="rgb(0, 0, 0)" stroke="rgb(66, 66, 66)" stroke-width="1px" opacity="0.25"></line><line x1="0" y1="25.14285714285717" x2="284" y2="25.14285714285717" fill="rgb(0, 0, 0)" stroke="rgb(66, 66, 66)" stroke-width="1px" opacity="0.25"></line><line x1="0" y1="0" x2="284" y2="0" fill="rgb(0, 0, 0)" stroke="rgb(66, 66, 66)" stroke-width="1px" opacity="0.25"></line></g></g></g><g><g><line x1="0" y1="502.85714285714295" x2="284" y2="502.85714285714295" fill="rgb(0, 0, 0)" stroke="rgb(153, 153, 153)" stroke-width="1.5px"></line></g></g><g><g><line x1="23.666666666666664" y1="0" x2="23.666666666666664" y2="176" fill="rgb(0, 0, 0)" stroke="rgb(153, 153, 153)" stroke-width="1.5px"></line></g></g><g><g><g><g><g><path stroke="rgb(204, 51, 17)" stroke-width="2px" d="M28.400000000000002,186.74328373673285L33.13333333333333,156.96472862474687L37.86666666666667,131.59360291435098L42.6,112.06128344433348L47.33333333333333,97.56661137910379L52.06666666666666,85.53104404800345L56.800000000000004,76.01138956833789L61.53333333333334,69.06622174971423L66.26666666666667,63.60276178352185L71,60.016298944043285L75.73333333333333,57.188829636788796L80.46666666666667,53.58025296038754L85.2,52.35523205507077L89.93333333333332,52.580259048524006L94.66666666666666,50.05367584951248L99.39999999999999,47.1601683261508L104.13333333333333,45.77462426723841L108.86666666666667,44.801743989803406L113.60000000000001,43.81792732133763L118.33333333333334,42.9063693421929L123.06666666666668,40.756195776452344L127.8,40.97395606375999L132.53333333333333,39.444442556506075L137.26666666666668,39.32621722290236L142,38.91317463933517L146.73333333333335,37.871671319409245L151.46666666666667,35.866307224428795L156.20000000000002,34.012033050160554L160.93333333333334,32.918271975983565L165.66666666666669,32.56661908489393L170.4,33.02371226861343L175.13333333333335,32.808470489417545L179.86666666666665,31.353963912834526L184.6,30.242785058855073L189.33333333333331,30.522647952473204L194.06666666666666,30.091453189322813L198.79999999999998,30.08453021706419L203.53333333333333,28.62802224734652L208.26666666666665,28.96647635971135L213,28.1769563105185L217.73333333333335,27.573768284776154L222.46666666666667,27.112935721899426L227.20000000000002,27.405838404613085L231.93333333333334,28.677693001562083L236.66666666666669,27.714476066277086L241.4,27.462305497126373L246.13333333333335,27.511513616906466L250.86666666666665,26.339785849536256L255.6,26.170177229903473" style="fill: none;" fill="none"></path></g><g><path stroke="rgb(255, 112, 67)" stroke-width="2px" d="M28.400000000000002,196.51068342979346L33.13333333333333,163.00824505078245L37.86666666666667,142.93308084021837L42.6,126.75837359630869L47.33333333333333,115.58236159618527L52.06666666666666,111.46215919352805L56.800000000000004,106.42014902654029L61.53333333333334,102.39307599178757L66.26666666666667,98.69754962912087L71,95.47396411982855L75.73333333333333,100.63814262069367L80.46666666666667,97.84527127527343L85.2,97.39799788317562L89.93333333333332,95.17308140709531L94.66666666666666,92.59086049216997L99.39999999999999,92.99500629239967L104.13333333333333,91.83934559581618L108.86666666666667,90.63579542560747L113.60000000000001,90.04327738351063L118.33333333333334,89.99625550349378L123.06666666666668,88.18196571702958L127.8,89.3830436453745L132.53333333333333,87.71572553965711L137.26666666666668,85.1515006256073L142,82.54815493021202L146.73333333333335,80.15680073631532L151.46666666666667,80.42776962128394L156.20000000000002,79.82818772680066L160.93333333333334,77.27340542045036L165.66666666666669,74.6767640662719L170.4,73.41890818930611L175.13333333333335,73.74811790092275L179.86666666666665,74.08024077302895L184.6,74.33396799458214L189.33333333333331,72.9959162737243L194.06666666666666,71.32867640783354L198.79999999999998,70.78055359483814L203.53333333333333,71.65176916614918L208.26666666666665,71.26927369764498L213,70.73518111440274L217.73333333333335,69.4402962916533L222.46666666666667,68.85412152637996L227.20000000000002,69.37374819896606L231.93333333333334,68.48079676727693L236.66666666666669,67.7179593812365L241.4,67.69950288972154L246.13333333333335,66.47607873590289L250.86666666666665,66.50884069015362L255.6,65.64703877108069" style="fill: none;" fill="none"></path></g><g><path stroke="rgb(51, 187, 238)" stroke-width="2px" d="M23.666666666666664,173.19877079554968L28.400000000000002,165.0650781051295L33.13333333333333,128.51416877551068L37.86666666666667,105.74553930479857L42.6,89.99132136620935L47.33333333333333,77.7714520750206L52.06666666666666,69.15305658427289L56.800000000000004,61.99960016209211L61.53333333333334,58.06374093169291L66.26666666666667,55.904461101687794L71,53.12868969522255L75.73333333333333,49.475403223075496L80.46666666666667,46.66318456900266L85.2,43.72559462018277L89.93333333333332,40.85346849035464L94.66666666666666,38.92570083700337L99.39999999999999,38.359866950452925L104.13333333333333,36.30481206036709L108.86666666666667,34.49819167191647L113.60000000000001,35.47127269768038L118.33333333333334,35.56559808998499L123.06666666666668,34.263287629210296L127.8,33.10820605361183L132.53333333333333,32.791941833933706L137.26666666666668,31.097600063966254L142,31.659946617214928L146.73333333333335,30.314466070205683L151.46666666666667,28.964255252487742L156.20000000000002,29.54607073055854L160.93333333333334,30.796943593397167L165.66666666666669,29.575155659695312L170.4,29.28692000600338L175.13333333333335,28.66356701453493L179.86666666666665,30.525618761088502L184.6,31.62563540776823L189.33333333333331,30.127856772503016L194.06666666666666,27.5323449905043L198.79999999999998,25.871919321634692L203.53333333333333,27.989561270205833L208.26666666666665,26.866234087521953L213,25.443664755165315L217.73333333333335,23.87310142990084L222.46666666666667,23.640663137562754L227.20000000000002,22.495619291591566L231.93333333333334,21.137082622206655L236.66666666666669,20.260405698223067L241.4,20.799943316912497L246.13333333333335,20.889665922820214L250.86666666666665,19.910139869871628L255.6,20.93544678076351" style="fill: none;" fill="none"></path></g><g><path stroke="rgb(0, 119, 187)" stroke-width="2px" d="M28.400000000000002,186.01356832580268L33.13333333333333,160.47463369665553L37.86666666666667,144.24117892629587L42.6,135.27849173705582L47.33333333333333,124.41034908058975L52.06666666666666,116.21739203649173L56.800000000000004,109.54094325822209L61.53333333333334,104.97109321468793L66.26666666666667,103.64975574854438L71,98.76853723467217L75.73333333333333,96.74368206463384L80.46666666666667,95.97926393698556L85.2,95.40509081706207L89.93333333333332,92.01757661401999L94.66666666666666,90.43538760644205L99.39999999999999,91.92373397735555L104.13333333333333,90.12903697764894L108.86666666666667,87.14162570608981L113.60000000000001,86.4056180640261L118.33333333333334,87.54372288653468L123.06666666666668,86.79481650705523L127.8,85.65798333967409L132.53333333333333,83.01396618093055L137.26666666666668,82.7714511627749L142,80.89169902882L146.73333333333335,77.76205723268494L151.46666666666667,75.61391455244204L156.20000000000002,74.37647418389564L160.93333333333334,74.39903548269463L165.66666666666669,74.17435347413985L170.4,74.40589159151L175.13333333333335,74.5021409082746L179.86666666666665,72.07614691757827L184.6,68.93275251795839L189.33333333333331,69.5951008273882L194.06666666666666,69.05298920234219L198.79999999999998,68.4775794510604L203.53333333333333,67.63485711028119L208.26666666666665,65.78168804697016L213,65.01085877830357L217.73333333333335,64.34133227204177L222.46666666666667,65.03914220162622L227.20000000000002,65.73350872887809L231.93333333333334,64.97405802386241L236.66666666666669,64.87757246040994L241.4,65.20696576916049L246.13333333333335,62.717491564573514L250.86666666666665,61.54113368399321L255.6,60.884255957090495" style="fill: none;" fill="none"></path></g></g></g></g><g opacity="0.2"><g><g><g><path stroke="rgb(204, 51, 17)" stroke-width="2px" d="M23.666666666666664,202.2360365731376L28.400000000000002,174.9068205697196L33.13333333333333,116.8322890145438L37.86666666666667,86.08694349016463L42.6,70.3726577758789L47.33333333333333,62.85714285714287L52.06666666666666,54.31677409580776L56.800000000000004,49.87579073224749L61.53333333333334,49.192534855433884L66.26666666666667,47.48448508126396L71,49.192534855433884L75.73333333333333,48.50930895124163L80.46666666666667,42.360245840890066L85.2,48.50930895124163L89.93333333333332,53.291920253208716L94.66666666666666,42.018647875104634L99.39999999999999,37.91926247732981L104.13333333333333,41.335391998291016L108.86666666666667,41.677019936697825L113.60000000000001,40.652166094098774L118.33333333333334,39.96894018990654L123.06666666666668,33.81987707955498L127.8,41.677019936697825L132.53333333333333,34.50310298374721L137.26666666666668,38.944086347307476L142,37.57763453892299L146.73333333333335,34.50310298374721L151.46666666666667,29.3788937159947L156.20000000000002,28.01241193498884L160.93333333333334,29.3788937159947L165.66666666666669,31.428571428571434L170.4,34.50310298374721L175.13333333333335,32.11179733276367L179.86666666666665,26.645960126604347L184.6,26.645960126604347L189.33333333333331,31.428571428571434L194.06666666666666,28.69563783918108L198.79999999999998,30.06211962018694L203.53333333333333,23.91305650983538L208.26666666666665,30.06211962018694L213,25.6211062840053L217.73333333333335,25.6211062840053L222.46666666666667,25.6211062840053L227.20000000000002,28.354039873395653L231.93333333333334,32.79502323695591L236.66666666666669,24.596282414027634L241.4,26.645960126604347L246.13333333333335,27.670813969203415L250.86666666666665,22.54657472882952L255.6,25.6211062840053" style="fill: none;" fill="none"></path></g><g><path stroke="rgb(255, 112, 67)" stroke-width="2px" d="M28.400000000000002,179.3478339059012L33.13333333333333,117.85714285714286L37.86666666666667,106.92546844482422L42.6,92.23603657313755L47.33333333333333,88.81987707955497L52.06666666666666,100.77640533447266L56.800000000000004,92.577634538923L61.53333333333334,90.8695547921317L66.26666666666667,87.79502323695593L71,85.74534552437919L75.73333333333333,116.49069104875838L80.46666666666667,89.16150501796177L85.2,95.99379403250559L89.93333333333332,88.13665117536274L94.66666666666666,84.3788937159947L99.39999999999999,94.2857142857143L104.13333333333333,88.13665117536274L108.86666666666667,86.77019936697825L113.60000000000001,88.13665117536274L118.33333333333334,89.84473092215403L123.06666666666668,82.3291860307966L127.8,93.26086044311523L132.53333333333333,82.3291860307966L137.26666666666668,76.86334882463728L142,74.1304452078683L146.73333333333335,72.42236546107702L151.46666666666667,81.30436216081893L156.20000000000002,77.88820266723633L160.93333333333334,69.00620596749442L165.66666666666669,66.27330235072546L170.4,69.34783390590124L175.13333333333335,74.81367111206055L179.86666666666665,75.15526907784599L184.6,75.15526907784599L189.33333333333331,68.66460800170898L194.06666666666666,65.93167441231864L198.79999999999998,69.00620596749442L203.53333333333333,74.47204317365373L208.26666666666665,70.03105981009348L213,69.00620596749442L217.73333333333335,65.24844850812639L222.46666666666667,66.9565282549177L227.20000000000002,71.05591365269252L231.93333333333334,65.5900764465332L236.66666666666669,65.24844850812639L241.4,67.63975415910994L246.13333333333335,62.51551491873606L250.86666666666665,66.61490031651088L255.6,62.85714285714287" style="fill: none;" fill="none"></path></g><g><path stroke="rgb(51, 187, 238)" stroke-width="2px" d="M23.666666666666664,173.19877079554968L28.400000000000002,158.85093688964844L33.13333333333333,79.25465447562082L37.86666666666667,64.90682056971959L42.6,56.3664518083845L47.33333333333333,48.50930895124163L52.06666666666666,46.80122920445034L56.800000000000004,42.360245840890066L61.53333333333334,46.80122920445034L66.26666666666667,49.53416279384068L71,44.751551491873606L75.73333333333333,38.260860443115234L80.46666666666667,37.91926247732981L85.2,34.50310298374721L89.93333333333332,31.770199366978247L94.66666666666666,32.79502323695591L99.39999999999999,36.55278069632395L104.13333333333333,29.72049168178013L108.86666666666667,28.69563783918108L113.60000000000001,38.60248838152204L118.33333333333334,35.869554792131694L123.06666666666668,30.06211962018694L127.8,29.3788937159947L132.53333333333333,31.770199366978247L137.26666666666668,25.6211062840053L142,33.47824914114817L146.73333333333335,25.96273422241211L151.46666666666667,24.596282414027634L156.20000000000002,31.428571428571434L160.93333333333334,34.84473092215403L165.66666666666669,25.6211062840053L170.4,28.354039873395653L175.13333333333335,26.645960126604347L179.86666666666665,36.55278069632395L184.6,35.18632888793945L189.33333333333331,25.27950831821987L194.06666666666666,19.13044520786831L198.79999999999998,20.496897016252785L203.53333333333333,34.84473092215403L208.26666666666665,23.229800633021775L213,20.83849498203823L217.73333333333335,18.788817269461497L222.46666666666667,22.888202667236328L227.20000000000002,18.788817269461497L231.93333333333334,16.739139556884766L236.66666666666669,17.422365461077003L241.4,22.54657472882952L246.13333333333335,21.180122920445044L250.86666666666665,16.739139556884766L255.6,24.254654475620825" style="fill: none;" fill="none"></path></g><g><path stroke="rgb(0, 119, 187)" stroke-width="2px" d="M23.666666666666664,232.29812622070312L28.400000000000002,150.6521660940988L33.13333333333333,126.05591365269252L37.86666666666667,115.12420926775252L42.6,116.14906311035156L47.33333333333333,98.38509968348912L52.06666666666666,94.96894018990653L56.800000000000004,91.21118273053852L61.53333333333334,91.89440863473075L66.26666666666667,99.75155149187361L71,84.03726577758789L75.73333333333333,90.52795682634627L80.46666666666667,93.60248838152205L85.2,93.60248838152205L89.93333333333332,81.30436216081893L94.66666666666666,85.40371758597239L99.39999999999999,96.67701993669783L104.13333333333333,84.3788937159947L108.86666666666667,77.54657472882951L113.60000000000001,84.03726577758789L118.33333333333334,91.21118273053852L123.06666666666668,84.3788937159947L127.8,81.98758806501115L132.53333333333333,74.47204317365373L137.26666666666668,81.98758806501115L142,74.81367111206055L146.73333333333335,67.63975415910994L151.46666666666667,68.66460800170898L156.20000000000002,70.3726577758789L160.93333333333334,74.47204317365373L165.66666666666669,73.44721930367606L170.4,75.15526907784599L175.13333333333335,74.81367111206055L179.86666666666665,64.22359466552734L184.6,58.75775745936802L189.33333333333331,71.73913955688477L194.06666666666666,67.29812622070312L198.79999999999998,66.61490031651088L203.53333333333333,64.90682056971959L208.26666666666665,59.78261130196709L213,62.51551491873606L217.73333333333335,62.17391695295061L222.46666666666667,67.29812622070312L227.20000000000002,67.98135212489538L231.93333333333334,62.51551491873606L236.66666666666669,64.56522260393416L241.4,66.27330235072546L246.13333333333335,54.65837206159319L250.86666666666665,57.732933589390356L255.6,58.75775745936802" style="fill: none;" fill="none"></path></g></g></g></g></g></g><g transform="translate(46, 176)" clip-path="url(#clip_1)"><clipPath id="clip_1"><rect width="284" height="24"></rect></clipPath><g><g><line x1="0" y1="0" x2="0" y2="5" style="visibility: inherit;" fill="rgb(0, 0, 0)" stroke="rgb(204, 204, 204)" stroke-width="1px"></line><line x1="23.666666666666664" y1="0" x2="23.666666666666664" y2="5" style="visibility: inherit;" fill="rgb(0, 0, 0)" stroke="rgb(204, 204, 204)" stroke-width="1px"></line><line x1="47.33333333333333" y1="0" x2="47.33333333333333" y2="5" style="visibility: inherit;" fill="rgb(0, 0, 0)" stroke="rgb(204, 204, 204)" stroke-width="1px"></line><line x1="71" y1="0" x2="71" y2="5" style="visibility: inherit;" fill="rgb(0, 0, 0)" stroke="rgb(204, 204, 204)" stroke-width="1px"></line><line x1="94.66666666666666" y1="0" x2="94.66666666666666" y2="5" style="visibility: inherit;" fill="rgb(0, 0, 0)" stroke="rgb(204, 204, 204)" stroke-width="1px"></line><line x1="118.33333333333334" y1="0" x2="118.33333333333334" y2="5" style="visibility: inherit;" fill="rgb(0, 0, 0)" stroke="rgb(204, 204, 204)" stroke-width="1px"></line><line x1="142" y1="0" x2="142" y2="5" style="visibility: inherit;" fill="rgb(0, 0, 0)" stroke="rgb(204, 204, 204)" stroke-width="1px"></line><line x1="165.66666666666669" y1="0" x2="165.66666666666669" y2="5" style="visibility: inherit;" fill="rgb(0, 0, 0)" stroke="rgb(204, 204, 204)" stroke-width="1px"></line><line x1="189.33333333333331" y1="0" x2="189.33333333333331" y2="5" style="visibility: inherit;" fill="rgb(0, 0, 0)" stroke="rgb(204, 204, 204)" stroke-width="1px"></line><line x1="213" y1="0" x2="213" y2="5" style="visibility: inherit;" fill="rgb(0, 0, 0)" stroke="rgb(204, 204, 204)" stroke-width="1px"></line><line x1="236.66666666666669" y1="0" x2="236.66666666666669" y2="5" style="visibility: inherit;" fill="rgb(0, 0, 0)" stroke="rgb(204, 204, 204)" stroke-width="1px"></line><line x1="260.3333333333333" y1="0" x2="260.3333333333333" y2="5" style="visibility: inherit;" fill="rgb(0, 0, 0)" stroke="rgb(204, 204, 204)" stroke-width="1px"></line><line x1="284" y1="0" x2="284" y2="5" style="visibility: inherit;" fill="rgb(0, 0, 0)" stroke="rgb(204, 204, 204)" stroke-width="1px"></line></g><g transform="translate(0, 8)"><text x="0" y="0" dx="0em" dy="0.95em" style="text-anchor: middle; visibility: hidden; font-family: Roboto, sans-serif; font-size: 12px; font-weight: 200;" fill="rgb(33, 33, 33)" stroke="none" stroke-width="1px">-5</text><text x="23.666666666666664" y="0" dx="0em" dy="0.95em" style="text-anchor: middle; visibility: inherit; font-family: Roboto, sans-serif; font-size: 12px; font-weight: 200;" fill="rgb(33, 33, 33)" stroke="none" stroke-width="1px">0</text><text x="47.33333333333333" y="0" dx="0em" dy="0.95em" style="text-anchor: middle; visibility: inherit; font-family: Roboto, sans-serif; font-size: 12px; font-weight: 200;" fill="rgb(33, 33, 33)" stroke="none" stroke-width="1px">5</text><text x="71" y="0" dx="0em" dy="0.95em" style="text-anchor: middle; visibility: inherit; font-family: Roboto, sans-serif; font-size: 12px; font-weight: 200;" fill="rgb(33, 33, 33)" stroke="none" stroke-width="1px">10</text><text x="94.66666666666666" y="0" dx="0em" dy="0.95em" style="text-anchor: middle; visibility: inherit; font-family: Roboto, sans-serif; font-size: 12px; font-weight: 200;" fill="rgb(33, 33, 33)" stroke="none" stroke-width="1px">15</text><text x="118.33333333333334" y="0" dx="0em" dy="0.95em" style="text-anchor: middle; visibility: inherit; font-family: Roboto, sans-serif; font-size: 12px; font-weight: 200;" fill="rgb(33, 33, 33)" stroke="none" stroke-width="1px">20</text><text x="142" y="0" dx="0em" dy="0.95em" style="text-anchor: middle; visibility: inherit; font-family: Roboto, sans-serif; font-size: 12px; font-weight: 200;" fill="rgb(33, 33, 33)" stroke="none" stroke-width="1px">25</text><text x="165.66666666666669" y="0" dx="0em" dy="0.95em" style="text-anchor: middle; visibility: inherit; font-family: Roboto, sans-serif; font-size: 12px; font-weight: 200;" fill="rgb(33, 33, 33)" stroke="none" stroke-width="1px">30</text><text x="189.33333333333331" y="0" dx="0em" dy="0.95em" style="text-anchor: middle; visibility: inherit; font-family: Roboto, sans-serif; font-size: 12px; font-weight: 200;" fill="rgb(33, 33, 33)" stroke="none" stroke-width="1px">35</text><text x="213" y="0" dx="0em" dy="0.95em" style="text-anchor: middle; visibility: inherit; font-family: Roboto, sans-serif; font-size: 12px; font-weight: 200;" fill="rgb(33, 33, 33)" stroke="none" stroke-width="1px">40</text><text x="236.66666666666669" y="0" dx="0em" dy="0.95em" style="text-anchor: middle; visibility: inherit; font-family: Roboto, sans-serif; font-size: 12px; font-weight: 200;" fill="rgb(33, 33, 33)" stroke="none" stroke-width="1px">45</text><text x="260.3333333333333" y="0" dx="0em" dy="0.95em" style="text-anchor: middle; visibility: inherit; font-family: Roboto, sans-serif; font-size: 12px; font-weight: 200;" fill="rgb(33, 33, 33)" stroke="none" stroke-width="1px">50</text><text x="284" y="0" dx="0em" dy="0.95em" style="text-anchor: middle; visibility: hidden; font-family: Roboto, sans-serif; font-size: 12px; font-weight: 200;" fill="rgb(33, 33, 33)" stroke="none" stroke-width="1px">55</text></g><line x1="0" y1="0" x2="284" y2="0" fill="rgb(0, 0, 0)" stroke="rgb(204, 204, 204)" stroke-width="1px"></line></g></g></g></g></svg>